<svg xmlns:rdf="http://www.w3.org/1999/02/22-rdf-syntax-ns#" xmlns="http://www.w3.org/2000/svg" height="14" width="16" version="1.1" xmlns:cc="http://creativecommons.org/ns#" xmlns:xlink="http://www.w3.org/1999/xlink" xmlns:dc="http://purl.org/dc/elements/1.1/">
 <defs>
  <linearGradient id="lg">
   <stop stop-color="#fff8ad" offset="0"/>
   <stop stop-color="#ebc503" offset="1"/>
  </linearGradient>
  <radialGradient id="rg4" xlink:href="#lg" gradientUnits="userSpaceOnUse" cy="402.01178" cx="576.71429" gradientTransform="matrix(-2.9256447e-8,0.99999945,-1.874999,-5.4855812e-8,1329.986,-172.56605)" r="8"/>
  <radialGradient id="rg6" xlink:href="#lg" gradientUnits="userSpaceOnUse" cy="401.64789" cx="581.71429" gradientTransform="matrix(-4.9958584e-6,1.2000053,-0.99999739,-4.1589755e-6,982.86406,-295.91071)" r="5"/>
 </defs>
 <g transform="translate(-574.71429,-399.64789)" stroke="#c38e0b" stroke-width="1">
  <path d="m 583.21429,407.14789 c 1,0 5,-1 5,-2 0,-1 -5.5,-1 -5.5,-1 0,0 -5.5,0 -5.5,1 0,1 4,2 5,2 z m -1,6 c -3,0 -3,0 -3,-1 0,-1 0,-1 2,-1 0,-2 0,-3 -1,-3 0,0 -5,0 -5,-4 0,-2 4,-1 4,-1 l 3.5,0 3.5,0 c 0,0 4,-1 4,1 0,4 -5,4 -5,4 -1,0 -1,1 -1,3 2,0 2,0 2,1 0,1 0,1 -3,1 z" fill="url(#rg4)"/>
  <path d="m583.21429,409.14789c1,0,4-2,4-9h-9c0,7,3,9,4,9z" fill="url(#rg6)"/>
 </g>
</svg>
